<?xml version="1.0" encoding="utf-8"?>
<!-- Generator: Adobe Illustrator 17.0.1, SVG Export Plug-In . SVG Version: 6.00 Build 0)  -->
<!DOCTYPE svg PUBLIC "-//W3C//DTD SVG 1.1//EN" "http://www.w3.org/Graphics/SVG/1.1/DTD/svg11.dtd">
<svg version="1.1" id="Layer_1" xmlns="http://www.w3.org/2000/svg" xmlns:xlink="http://www.w3.org/1999/xlink" x="0px" y="0px"
	 width="432px" height="112.952px" viewBox="0 0 432 112.952" enable-background="new 0 0 432 112.952" xml:space="preserve">
<line fill="none" stroke="#000000" stroke-width="4" stroke-miterlimit="10" x1="59.73" y1="21.947" x2="59.73" y2="57.264"/>
<line fill="none" stroke="#000000" stroke-width="4" stroke-miterlimit="10" x1="57.952" y1="21.947" x2="102" y2="39.606"/>
<line fill="none" stroke="#000000" stroke-width="4" stroke-miterlimit="10" x1="57.952" y1="57.264" x2="102" y2="39.606"/>
<line fill="none" stroke="#000000" stroke-width="4.2247" stroke-miterlimit="10" x1="102" y1="39.484" x2="122.916" y2="39.484"/>
<circle fill="none" stroke="#000000" stroke-width="4" stroke-miterlimit="10" cx="127.33" cy="39.484" r="4.415"/>
<g>
	<g>
		<path d="M287.273,50.965c20.513,0,36.975-11.752,44.245-22.137c0.801-1.143,0.523-2.719-0.621-3.52
			c-1.143-0.801-2.719-0.522-3.52,0.621c-9.162,13.086-34.522,28.536-63.569,14.284c-3.232-1.586-6.249-3.084-9.093-4.496
			c-23.834-11.836-35.797-17.777-60.212-18.632c-28.243-0.984-60.395,17.77-61.75,18.569c-1.202,0.709-1.603,2.258-0.894,3.46
			c0.709,1.203,2.259,1.603,3.461,0.895c0.32-0.188,32.262-18.825,59.007-17.871c23.323,0.816,34.958,6.595,58.14,18.108
			c2.85,1.415,5.874,2.917,9.114,4.506C270.56,49.158,279.229,50.965,287.273,50.965z"/>
	</g>
	<g>
		<path d="M329.448,58.292c0.381,0,0.689-0.309,0.689-0.689V39.165c0-0.381-0.309-0.69-0.689-0.69c-0.381,0-0.69,0.309-0.69,0.69
			v18.437C328.758,57.982,329.067,58.292,329.448,58.292z"/>
	</g>
	<g>
		<path d="M318.831,72.837c0.381,0,0.689-0.309,0.689-0.689V46.101c0-0.38-0.309-0.69-0.689-0.69c-0.381,0-0.69,0.309-0.69,0.69
			v26.047C318.141,72.528,318.45,72.837,318.831,72.837z"/>
	</g>
	<g>
		<path d="M308.214,87.14c0.381,0,0.69-0.309,0.69-0.69V49.797c0-0.381-0.309-0.689-0.69-0.689c-0.381,0-0.689,0.309-0.689,0.689
			v36.654C307.524,86.831,307.833,87.14,308.214,87.14z"/>
	</g>
	<g>
		<path d="M297.596,97.305c0.381,0,0.69-0.309,0.69-0.689V53.228c0-0.38-0.309-0.689-0.69-0.689c-0.381,0-0.689,0.309-0.689,0.689
			v43.388C296.907,96.997,297.216,97.305,297.596,97.305z"/>
	</g>
	<g>
		<path d="M286.979,103.303c0.381,0,0.69-0.309,0.69-0.69V54.43c0-0.381-0.309-0.689-0.69-0.689c-0.381,0-0.689,0.309-0.689,0.689
			v48.184C286.29,102.994,286.599,103.303,286.979,103.303z"/>
	</g>
	<g>
		<path d="M276.362,106.773c0.381,0,0.689-0.309,0.689-0.69V53.134c0-0.381-0.309-0.69-0.689-0.69c-0.381,0-0.689,0.309-0.689,0.69
			v52.949C275.673,106.465,275.981,106.773,276.362,106.773z"/>
	</g>
	<g>
		<path d="M265.745,105.941c0.381,0,0.689-0.309,0.689-0.689V50.112c0-0.381-0.308-0.689-0.689-0.689s-0.689,0.309-0.689,0.689
			v55.141C265.056,105.633,265.364,105.941,265.745,105.941z"/>
	</g>
	<g>
		<path d="M255.128,99.603c0.381,0,0.689-0.309,0.689-0.69V46.148c0-0.381-0.308-0.69-0.689-0.69c-0.381,0-0.689,0.309-0.689,0.69
			v52.766C254.439,99.295,254.747,99.603,255.128,99.603z"/>
	</g>
	<g>
		<path d="M244.511,94.915c0.381,0,0.689-0.309,0.689-0.69v-53.93c0-0.38-0.308-0.689-0.689-0.689c-0.381,0-0.689,0.309-0.689,0.689
			v53.93C243.822,94.606,244.13,94.915,244.511,94.915z"/>
	</g>
	<g>
		<path d="M233.894,90.268c0.381,0,0.689-0.309,0.689-0.69V34.319c0-0.38-0.309-0.69-0.689-0.69c-0.381,0-0.689,0.309-0.689,0.69
			v55.259C233.204,89.959,233.513,90.268,233.894,90.268z"/>
	</g>
	<g>
		<path d="M223.277,85.937c0.381,0,0.689-0.309,0.689-0.689V29.425c0-0.38-0.309-0.69-0.689-0.69c-0.381,0-0.69,0.309-0.69,0.69
			v55.823C222.587,85.628,222.896,85.937,223.277,85.937z"/>
	</g>
	<g>
		<path d="M212.66,84.19c0.381,0,0.689-0.309,0.689-0.689V27.677c0-0.38-0.309-0.689-0.689-0.689c-0.381,0-0.69,0.309-0.69,0.689
			V83.5C211.97,83.88,212.279,84.19,212.66,84.19z"/>
	</g>
	<g>
		<path d="M202.042,81.735c0.381,0,0.69-0.309,0.69-0.689V25.223c0-0.381-0.309-0.69-0.69-0.69c-0.381,0-0.689,0.309-0.689,0.69
			v55.822C201.353,81.426,201.662,81.735,202.042,81.735z"/>
	</g>
	<g>
		<path d="M191.425,81.459c0.381,0,0.69-0.309,0.69-0.69V24.947c0-0.38-0.309-0.69-0.69-0.69c-0.381,0-0.689,0.309-0.689,0.69V80.77
			C190.736,81.15,191.044,81.459,191.425,81.459z"/>
	</g>
	<g>
		<path d="M180.808,82.811c0.381,0,0.69-0.309,0.69-0.69V26.298c0-0.38-0.309-0.69-0.69-0.69c-0.381,0-0.689,0.309-0.689,0.69
			v55.823C180.119,82.502,180.427,82.811,180.808,82.811z"/>
	</g>
	<g>
		<path d="M170.191,84.496c0.381,0,0.689-0.309,0.689-0.689V28.993c0-0.38-0.309-0.689-0.689-0.689s-0.689,0.309-0.689,0.689v54.813
			C169.502,84.186,169.81,84.496,170.191,84.496z"/>
	</g>
	<g>
		<path d="M159.574,83.73c0.381,0,0.689-0.309,0.689-0.689V32.164c0-0.38-0.308-0.69-0.689-0.69c-0.381,0-0.689,0.309-0.689,0.69
			v50.876C158.885,83.421,159.193,83.73,159.574,83.73z"/>
	</g>
	<g>
		<path d="M148.957,78.348c0.381,0,0.689-0.309,0.689-0.69V37.11c0-0.38-0.309-0.689-0.689-0.689c-0.381,0-0.689,0.309-0.689,0.689
			v40.548C148.268,78.039,148.576,78.348,148.957,78.348z"/>
	</g>
	<g>
		<path d="M138.34,71.684c0.38,0,0.689-0.309,0.689-0.69V41.647c0-0.381-0.309-0.69-0.689-0.69c-0.381,0-0.69,0.309-0.69,0.69
			v29.347C137.65,71.375,137.959,71.684,138.34,71.684z"/>
	</g>
	<g>
		<path d="M324.139,64.986c0.381,0,0.69-0.309,0.69-0.689V41.699c0-0.38-0.309-0.69-0.69-0.69c-0.381,0-0.689,0.309-0.689,0.69
			v22.598C323.45,64.677,323.758,64.986,324.139,64.986z"/>
	</g>
	<g>
		<path d="M313.522,80.648c0.381,0,0.689-0.309,0.689-0.69V48.634c0-0.38-0.308-0.69-0.689-0.69s-0.689,0.309-0.689,0.69v31.325
			C312.833,80.339,313.141,80.648,313.522,80.648z"/>
	</g>
	<g>
		<path d="M302.905,92.654c0.381,0,0.689-0.309,0.689-0.689V52.33c0-0.381-0.308-0.69-0.689-0.69s-0.689,0.309-0.689,0.69v39.635
			C302.216,92.345,302.524,92.654,302.905,92.654z"/>
	</g>
	<g>
		<path d="M292.288,100.752c0.381,0,0.689-0.309,0.689-0.69V53.464c0-0.381-0.309-0.689-0.689-0.689c-0.381,0-0.69,0.309-0.69,0.689
			v46.599C291.598,100.443,291.907,100.752,292.288,100.752z"/>
	</g>
	<g>
		<path d="M281.671,105.941c0.381,0,0.689-0.309,0.689-0.689V54.665c0-0.38-0.309-0.689-0.689-0.689
			c-0.381,0-0.689,0.309-0.689,0.689v50.587C280.981,105.633,281.29,105.941,281.671,105.941z"/>
	</g>
	<g>
		<path d="M271.054,106.525c0.381,0,0.689-0.309,0.689-0.689V51.308c0-0.381-0.309-0.689-0.689-0.689
			c-0.381,0-0.69,0.309-0.69,0.689v54.527C270.364,106.216,270.673,106.525,271.054,106.525z"/>
	</g>
	<g>
		<path d="M260.437,103.303c0.381,0,0.69-0.309,0.69-0.69V47.473c0-0.381-0.309-0.689-0.69-0.689c-0.381,0-0.689,0.309-0.689,0.689
			v55.141C259.747,102.994,260.056,103.303,260.437,103.303z"/>
	</g>
	<g>
		<path d="M249.819,97.305c0.381,0,0.69-0.309,0.69-0.689v-52.99c0-0.381-0.309-0.69-0.69-0.69c-0.381,0-0.689,0.309-0.689,0.69
			v52.99C249.13,96.997,249.439,97.305,249.819,97.305z"/>
	</g>
	<g>
		<path d="M239.202,92.375c0.381,0,0.69-0.309,0.69-0.69V37.773c0-0.38-0.309-0.69-0.69-0.69c-0.381,0-0.689,0.309-0.689,0.69
			v53.912C238.513,92.066,238.822,92.375,239.202,92.375z"/>
	</g>
	<g>
		<path d="M228.585,87.746c0.381,0,0.689-0.309,0.689-0.69V31.798c0-0.381-0.309-0.689-0.689-0.689
			c-0.381,0-0.689,0.309-0.689,0.689v55.259C227.896,87.438,228.204,87.746,228.585,87.746z"/>
	</g>
	<g>
		<path d="M217.968,85.343c0.381,0,0.689-0.309,0.689-0.689V28.832c0-0.38-0.308-0.689-0.689-0.689
			c-0.381,0-0.689,0.309-0.689,0.689v55.823C217.279,85.035,217.587,85.343,217.968,85.343z"/>
	</g>
	<g>
		<path d="M207.351,82.111c0.381,0,0.689-0.309,0.689-0.69V25.599c0-0.381-0.308-0.69-0.689-0.69c-0.381,0-0.689,0.309-0.689,0.69
			v55.823C206.662,81.803,206.97,82.111,207.351,82.111z"/>
	</g>
	<g>
		<path d="M196.734,81.129c0.381,0,0.689-0.309,0.689-0.689V24.617c0-0.38-0.308-0.689-0.689-0.689c-0.381,0-0.69,0.309-0.69,0.689
			V80.44C196.044,80.82,196.353,81.129,196.734,81.129z"/>
	</g>
	<g>
		<path d="M186.117,81.735c0.381,0,0.689-0.309,0.689-0.689V25.223c0-0.381-0.308-0.69-0.689-0.69s-0.689,0.309-0.689,0.69v55.822
			C185.427,81.426,185.736,81.735,186.117,81.735z"/>
	</g>
	<g>
		<path d="M175.5,83.276c0.381,0,0.689-0.309,0.689-0.69V27.671c0-0.381-0.309-0.69-0.689-0.69c-0.381,0-0.689,0.309-0.689,0.69
			v54.916C174.81,82.968,175.119,83.276,175.5,83.276z"/>
	</g>
	<g>
		<path d="M164.882,84.411c0.381,0,0.69-0.296,0.69-0.661V30.182c0-0.365-0.309-0.661-0.69-0.661c-0.381,0-0.689,0.296-0.689,0.661
			v53.567C164.193,84.114,164.502,84.411,164.882,84.411z"/>
	</g>
	<g>
		<path d="M154.265,80.991c0.381,0,0.69-0.309,0.69-0.69V34.698c0-0.38-0.309-0.689-0.69-0.689c-0.38,0-0.689,0.309-0.689,0.689
			v45.603C153.576,80.681,153.885,80.991,154.265,80.991z"/>
	</g>
	<g>
		<path d="M143.648,75.246c0.381,0,0.69-0.309,0.69-0.689V39.184c0-0.38-0.309-0.689-0.69-0.689c-0.381,0-0.689,0.309-0.689,0.689
			v35.372C142.959,74.937,143.268,75.246,143.648,75.246z"/>
	</g>
	<g>
		<path d="M133.031,68.697c0.381,0,0.689-0.309,0.689-0.69V44.181c0-0.38-0.309-0.69-0.689-0.69c-0.381,0-0.689,0.309-0.689,0.69
			v23.827C132.342,68.388,132.651,68.697,133.031,68.697z"/>
	</g>
</g>
</svg>
